<svg fill="currentColor" fill-rule="evenodd" height="1em"
     style="flex:none;line-height:1" viewBox="0 0 24 24" width="1em"
     xmlns="http://www.w3.org/2000/svg">
  <g transform="translate(2.6,1) scale(0.052)">
    <path d="M91.206 380.553C153.507 254.245 92.9879 196.716 54.1936 171.437M115.224 253.35C175.768 238.646 234.631 239.501 275.867 328.283M179.27 246.678C120.417 99.332 217.149 93.4648 193.193 14.9632M275.867 328.283C277.215 325.819 278.668 323.411 280.233 321.076C297.209 295.762 309.2 276.032 315.269 265.756C318.056 261.039 317.551 255.126 314.251 250.752C305.652 239.358 289.199 216.202 280.233 194.761C271.018 172.718 269.642 138.495 269.563 121.825C269.534 115.489 267.526 109.301 263.607 104.321L194.349 16.3367C193.976 15.8626 193.591 15.4048 193.193 14.9632M275.867 328.283C267.133 344.241 262.78 362.537 260.662 378.28C258.2 396.563 240.311 410.845 222.533 405.914C197.203 398.934 167.874 388.049 141.484 386.02C138.004 385.753 101.037 382.949 101.037 382.949C94.4979 382.484 88.3603 379.626 83.7933 374.923L14.1002 303.149C6.48379 295.307 4.42215 283.61 8.8976 273.636C8.8976 273.636 51.992 178.92 53.5925 173.994C53.7524 173.502 53.955 172.63 54.1936 171.437M193.193 14.9632C183.424 4.11226 166.554 3.08812 155.533 13.003L73.0879 87.1715C68.4896 91.3081 65.4704 96.9146 64.5478 103.031C61.4147 123.803 56.3429 160.683 54.1936 171.437"
          fill="none" stroke="currentColor" stroke-width="30"
          stroke-linecap="round" stroke-linejoin="round"/>
  </g>
</svg>